# AST/ASF file generated using VICON BodyLanguage
# -----------------------------------------------
:version 1.10
:name VICON
:units
  mass 1.0
  length 0.45
  angle deg
:documentation
   .ast/.asf automatically generated from VICON data using
   VICON BodyBuilder and BodyLanguage model FoxedUp or BRILLIANT.MOD
:root
   order TX TY TZ RX RY RZ
   axis XYZ
   position 0 0 0  
   orientation 0 0 0 
:bonedata
  begin
     id 1 
     name lhipjoint
     direction 0.601702 -0.665326 0.441924 
     length 2.60689 
     axis 0 0 0  XYZ
  end
  begin
     id 2 
     name lfemur
     direction 0.34202 -0.939693 0  
     length 6.99849  
     axis 0 0 20  XYZ
    dof rx ry rz
    limits (-160.0 20.0)
           (-70.0 70.0)
           (-60.0 70.0)
  end
  begin
     id 3 
     name ltibia
     direction 0.34202 -0.939693 0   
     length 7.33734   
     axis 0 0 20   XYZ
    dof rx
    limits (-10.0 170.0)
  end
  begin
     id 4 
     name lfoot
     direction 0.0879468 -0.241632 0.966374   
     length 1.95247   
     axis -90 7.62852e-016 20   XYZ
    dof rx rz
    limits (-45.0 90.0)
           (-70.0 20.0)
  end
  begin
     id 5 
     name ltoes
     direction 1.53555e-011 -4.22053e-011 1   
     length 0.981458   
     axis -90 7.62852e-016 20   XYZ
    dof rx
    limits (-90.0 20.0)
  end
  begin
     id 6 
     name rhipjoint
     direction -0.524152 -0.709394 0.471195   
     length 2.44495  
     axis 0 0 0  XYZ 
  end
  begin
     id 7 
     name rfemur
     direction -0.34202 -0.939693 0   
     length 6.63298   
     axis 0 0 -20   XYZ
    dof rx ry rz
    limits (-160.0 20.0)
           (-70.0 70.0)
           (-70.0 60.0)
  end
  begin
     id 8 
     name rtibia
     direction -0.34202 -0.939693 0   
     length 7.43066   
     axis 0 0 -20   XYZ
    dof rx
    limits (-10.0 170.0)
 end
 begin
     id 9 
     name rfoot
     direction -0.113818 -0.312714 0.943003   
     length 2.04792  
     axis -90 -7.62852e-016 -20   XYZ
    dof rx rz
    limits (-45.0 90.0)
           (-20.0 70.0)
  end
  begin
     id 10 
     name rtoes
     direction -1.53508e-011 -4.21689e-011 1   
     length 1.02013   
     axis -90 -7.62852e-016 -20   XYZ
    dof rx
    limits (-90.0 20.0)
  end
  begin
     id 11 
     name lowerback
     direction -0.0334041 0.990787 -0.131244   
     length 2.12417   
     axis 0 0 0   XYZ
    dof rx ry rz
    limits (-20.0 45.0)
           (-30.0 30.0)
           (-30.0 30.0)
  end
  begin
     id 12 
     name upperback
     direction -0.00386223 0.999243 -0.0387184   
     length 2.13824   
     axis 0 0 0   XYZ
    dof rx ry rz
    limits (-20.0 45.0)
           (-30.0 30.0)
           (-30.0 30.0)
  end
  begin
     id 13 
     name thorax
     direction 0.00911962 0.999708 0.0223632   
     length 2.17223   
     axis 0 0 0   XYZ
    dof rx ry rz
    limits (-20.0 45.0)
           (-30.0 30.0)
           (-30.0 30.0)
  end
  begin
     id 14 
     name lowerneck
     direction 0.0180441 0.990527 0.136127   
     length 1.79499   
     axis 0 0 0   XYZ
    dof rx ry rz
    limits (-20.0 45.0)
           (-30.0 30.0)
           (-30.0 30.0)
  end
  begin
     id 15 
     name upperneck
     direction 0.00566481 0.961662 -0.274179   
     length 1.81138   
     axis 0 0 0   XYZ
    dof rx ry rz
    limits (-20.0 45.0)
           (-30.0 30.0)
           (-30.0 30.0)
  end
  begin
     id 16
     name head
     direction 0.000922185 0.994286 -0.106749  
     length 1.84109  
     axis 0 0 0   XYZ
    dof rx ry rz
    limits (-20.0 45.0)
           (-30.0 30.0)
           (-30.0 30.0)
  end
  begin
     id 17 
     name lclavicle
     direction 0.916316 0.39017 -0.0901807  
     length 3.48327  
     axis 0 0 0   XYZ
    dof ry rz
    limits (-20.0 10.0)
           (0.0 20.0)
  end
  begin
     id 18 
     name lhumerus
     direction 1 -4.4897e-011 -7.31988e-029   
     length 4.85247   
     axis 180 -30 -90   XYZ
    dof rx ry rz
    limits (-60.0 90.0)
           (-90.0 90.0)
           (-90.0 90.0)
  end
  begin
     id 19
     name lradius
     direction 1 -4.4895e-011 9.36002e-027   
     length 3.55584   
     axis 180 -30 -90   XYZ
    dof rx
    limits (-10.0 170.0)
  end
  begin
     id 20
     name lwrist
     direction 1 -4.48975e-011 1.73237e-026   
     length 1.77792   
     axis -9.60847e-015 90 90   XYZ
    dof ry
    limits (-180.0 0.0)
 end
  begin
     id 21 
     name lhand
     direction 1 -4.48951e-011 3.46425e-026   
     length 0.693203   
     axis -2.21073e-014 90 90   XYZ
    dof rx rz
    limits (-90.0 90.0)
           (-45.0 45.0)
  end
  begin
     id 22 
     name lfingers
     direction 1 -4.48937e-011 6.92793e-026   
     length 0.558878   
     axis -4.42155e-014 90 90   XYZ
    dof rx
    limits (0.0 90.0)
  end
  begin
     id 23
     name lthumb
     direction 0.707107 -6.34959e-011 0.707107   
     length 0.802441   
     axis -90 45 6.0103e-014   XYZ
    dof rx rz
    limits (-45.0 45.0)
           (-45.0 45.0)
  end
  begin
     id 24 
     name rclavicle
     direction -0.932839 0.352129 -0.0762679   
     length 3.52686  
     axis 0 0 0   XYZ 
    dof ry rz
    limits (-10.0 20.0)
           (-20.0 0.0)
  end
  begin
     id 25 
     name rhumerus
     direction -1 -4.48974e-011 2.90424e-028  
     length 4.64462   
     axis 180 30 90   XYZ
    dof rx ry rz
    limits (-90.0 60.0)
           (-90.0 90.0)
           (-90.0 90.0)
  end
  begin
     id 26 
     name rradius
     direction -1 -4.48956e-011 7.17421e-027   
     length 3.40703   
     axis 180 30 90   XYZ
    dof rx
    limits (-10.0 170.0)
  end
  begin
     id 27 
     name rwrist
     direction -1 -4.48971e-011 1.73232e-026   
     length 1.70352   
     axis -9.60847e-015 -90 -90   XYZ
    dof ry
    limits (-180.0 0.0)
  end
  begin
     id 28
     name rhand
     direction -1 -4.49004e-011 3.46531e-026   
     length 0.619577   
     axis -2.21073e-014 -90 -90   XYZ
    dof rx rz
    limits (-90.0 90.0)
           (-45.0 45.0)
  end
  begin
     id 29
     name rfingers
     direction -1 -4.48859e-011 6.92483e-026   
     length 0.499519   
     axis -4.42155e-014 -90 -90   XYZ
    dof rx
    limits (0.0 90.0)
  end
  begin
     id 30
     name rthumb
     direction -0.707107 -6.34911e-011 0.707107   
     length 0.717212   
     axis -90 -45 -6.0103e-014   XYZ
    dof rx rz
    limits (-45.0 45.0)
           (-45.0 45.0)
  end
:hierarchy
  begin
    root lhipjoint rhipjoint lowerback
    lhipjoint lfemur
    lfemur ltibia
    ltibia lfoot
    lfoot ltoes
    rhipjoint rfemur
    rfemur rtibia
    rtibia rfoot
    rfoot rtoes
    lowerback upperback
    upperback thorax
    thorax lowerneck lclavicle rclavicle
    lowerneck upperneck
    upperneck head
    lclavicle lhumerus
    lhumerus lradius
    lradius lwrist
    lwrist lhand lthumb
    lhand lfingers
    rclavicle rhumerus
    rhumerus rradius
    rradius rwrist
    rwrist rhand rthumb
    rhand rfingers
  end

#!OML:ASF Y:\EmotionMaleHayes\Project 1\Capture day 1\Session 1\Male1.ASF
:FULLY-SPECIFIED
:DEGREES
98
root -28.4604 17.0499 1.22079 49.7417 83.433 50.4361
lowerback 3.69058 2.27196 -7.90044
upperback -0.0242674 2.69013 -2.3437
thorax -2.34609 1.44044 1.83613
lowerneck -20.691 2.96979 6.10804
upperneck 27.1903 3.26873 -2.52461
head 12.6353 1.87934 -1.41974
rclavicle 8.69683e-015 1.27222e-014
rhumerus -35.2223 2.80297 -90.2784
rradius 30.1443
rwrist 3.91739
rhand -7.76377 -32.7212
rfingers 7.12502
rthumb 18.1361 -61.8957
lclavicle 8.69683e-015 1.27222e-014
lhumerus -33.2533 -7.5405 89.5527
lradius 23.0683
lwrist -15.0437
lhand -14.7356 -24.9943
lfingers 7.12502
lthumb 11.4197 4.6747
rfemur 9.13311 -5.07311 6.40254
rtibia 2.76736
rfoot -15.2307 -0.654854
rtoes 3.74822
lfemur 13.1531 1.19688 -23.2833
ltibia -3.31056
lfoot -13.1446 15.3986
ltoes -5.10548
99
root -28.4644 17.0512 1.22629 48.0926 83.6171 48.7151
lowerback 3.65155 2.25173 -7.69187
upperback -0.0497944 2.67285 -2.24153
thorax -2.34446 1.42899 1.82871
lowerneck -20.6922 3.02874 6.13582
upperneck 27.1337 3.34673 -2.54695
head 12.618 1.91196 -1.41958
rclavicle -1.97791e-014 -3.97569e-015
rhumerus -35.2154 2.96334 -90.2857
rradius 30.1854
rwrist 3.83619
rhand -7.76837 -32.5925
rfingers 7.12502
rthumb 18.1317 -61.7674
lclavicle -1.97791e-014 -3.97569e-015
lhumerus -33.2023 -7.40653 89.4763
lradius 23.0573
lwrist -15.2191
lhand -14.8264 -24.7469
lfingers 7.12502
lthumb 11.3322 4.92695
rfemur 8.98156 -4.8516 6.8444
rtibia 2.81044
rfoot -15.2509 -0.81848
rtoes 3.68994
lfemur 13.0649 1.19153 -22.9025
ltibia -3.29711
lfoot -13.116 15.4149
ltoes -4.97435
100
root -28.4633 17.0508 1.22772 49.1651 83.4515 49.7656
lowerback 3.58782 2.24604 -7.91591
upperback -0.0789826 2.66141 -2.26512
thorax -2.34721 1.42709 1.9305
lowerneck -20.4978 2.99941 6.15755
upperneck 27.0724 3.35381 -2.68179
head 12.5569 1.90117 -1.47527
rclavicle 1.08338e-014 1.74931e-014
rhumerus -35.2969 3.16839 -90.2803
rradius 30.2441
rwrist 3.80673
rhand -7.81551 -32.3396
rfingers 7.12502
rthumb 18.0863 -61.5187
lclavicle 1.08338e-014 1.74931e-014
lhumerus -33.2421 -7.33184 89.4505
lradius 23.0557
lwrist -15.324
lhand -15.0978 -24.8731
lfingers 7.12502
lthumb 11.0704 4.8149
rfemur 8.92593 -4.9266 6.57324
rtibia 2.85691
rfoot -15.2692 -0.748269
rtoes 3.3331
lfemur 13.0368 1.18663 -23.1457
ltibia -3.29029
lfoot -13.1743 15.3794
ltoes -4.24748
101
root -28.4627 17.0508 1.22957 49.9437 83.3251 50.5716
lowerback 3.58969 2.25551 -8.05074
upperback -0.0953545 2.66782 -2.30047
thorax -2.37044 1.43337 1.96732
lowerneck -20.3867 3.02897 6.09303
upperneck 26.988 3.38373 -2.55141
head 12.4984 1.92524 -1.41005
rclavicle 1.11816e-015 -2.14687e-014
rhumerus -35.3726 3.40656 -90.2972
rradius 30.3452
rwrist 3.71653
rhand -7.83062 -32.2609
rfingers 7.12502
rthumb 18.0718 -61.4413
lclavicle 1.11816e-015 -2.14687e-014
lhumerus -33.2547 -7.37841 89.4088
lradius 23.1127
lwrist -14.9716
lhand -14.3646 -24.9923
lfingers 7.12502
lthumb 11.7776 4.65652
rfemur 8.97355 -4.82966 6.40475
rtibia 2.82687
rfoot -15.3172 -0.793807
rtoes 3.96207
lfemur 13.0541 1.2351 -23.3039
ltibia -3.26414
lfoot -13.2141 15.2924
ltoes -4.20491
102
root -28.4621 17.0498 1.23155 50.4799 83.3069 51.1465
lowerback 3.5896 2.24294 -8.04471
upperback -0.0565726 2.6544 -2.34645
thorax -2.32619 1.42465 1.91852
lowerneck -20.4462 3.06611 6.05934
upperneck 26.9173 3.39123 -2.40033
head 12.4793 1.94235 -1.34475
rclavicle -2.29099e-014 7.95139e-015
rhumerus -35.3207 3.54084 -90.3284
rradius 30.4323
rwrist 3.56424
rhand -7.6973 -32.4784
rfingers 7.12502
rthumb 18.2001 -61.6469
lclavicle -2.29099e-014 7.95139e-015
lhumerus -33.2103 -7.80012 89.4846
lradius 23.2145
lwrist -14.5101
lhand -15.0322 -24.8686
lfingers 7.12502
lthumb 11.1336 4.81602
rfemur 9.04682 -4.72463 6.37362
rtibia 2.80305
rfoot -15.3921 -0.893156
rtoes 3.94133
lfemur 13.0843 1.39261 -23.3009
ltibia -3.23744
lfoot -13.142 15.1277
ltoes -4.77477
103
root -28.4623 17.0478 1.23485 50.8092 83.2943 51.5023
lowerback 3.49657 2.21914 -8.01106
upperback 0.0251305 2.64009 -2.40172
thorax -2.18324 1.41122 1.85006
lowerneck -20.4308 3.01327 6.03836
upperneck 26.8987 3.32947 -2.42347
head 12.4654 1.90936 -1.36073
rclavicle 6.05051e-015 -1.03368e-014
rhumerus -35.1695 3.50375 -90.3408
rradius 30.4839
rwrist 3.59365
rhand -7.44612 -32.7777
rfingers 7.12502
rthumb 18.4417 -61.9235
lclavicle 6.05051e-015 -1.03368e-014
lhumerus -33.1355 -8.2829 89.5206
lradius 23.3085
lwrist -14.0949
lhand -14.0772 -24.77
lfingers 7.12502
lthumb 12.0546 4.86275
rfemur 9.07623 -4.71269 6.3562
rtibia 2.80303
rfoot -15.4217 -0.967469
rtoes 2.99394
lfemur 13.0966 1.57429 -23.2681
ltibia -3.19371
lfoot -13.0827 14.9962
ltoes -4.92812
104
root -28.4707 17.0499 1.24276 48.6998 83.574 49.3169
lowerback 3.51701 2.20372 -7.7897
upperback -0.0394572 2.61944 -2.19262
thorax -2.26009 1.40068 1.94259
lowerneck -20.4401 3.05982 5.91368
upperneck 26.8672 3.40385 -2.31674
head 12.4537 1.94272 -1.28631
rclavicle -3.95085e-015 2.38542e-015
rhumerus -35.2084 3.69666 -90.2259
rradius 30.5323
rwrist 3.69313
rhand -7.47104 -32.8265
rfingers 7.12502
rthumb 18.4177 -61.9746
lclavicle -3.95085e-015 2.38542e-015
lhumerus -33.2342 -8.3358 89.6431
lradius 23.3888
lwrist -14.0957
lhand -15.2373 -24.5551
lfingers 7.12502
lthumb 10.9359 5.14012
rfemur 8.93183 -4.38973 6.99259
rtibia 2.79237
rfoot -15.4481 -1.32593
rtoes 3.12957
lfemur 12.916 1.80765 -22.6312
ltibia -3.00313
lfoot -13.0719 14.7629
ltoes -4.77906
105
root -28.4839 17.0571 1.25389 43.568 84.1389 44.0516
lowerback 3.58646 2.18981 -7.12036
upperback -0.133123 2.61224 -1.91836
thorax -2.37845 1.39242 1.85095
lowerneck -20.5122 3.05379 5.94936
upperneck 26.993 3.40854 -2.39517
head 12.521 1.93987 -1.32086
rclavicle -9.01985e-015 0
rhumerus -35.2223 3.93301 -90.242
rradius 30.5744
rwrist 3.62657
rhand -7.66148 -32.9652
rfingers 7.12502
rthumb 18.2345 -62.1305
lclavicle -9.01985e-015 0
lhumerus -33.2496 -8.37612 89.6807
lradius 23.6069
lwrist -13.7843
lhand -13.9871 -24.3747
lfingers 7.12502
lthumb 12.1415 5.25293
rfemur 8.69231 -3.75192 8.27909
rtibia 2.78658
rfoot -15.5582 -1.98547
rtoes 3.75458
lfemur 12.6805 1.90118 -21.4619
ltibia -2.8109
lfoot -13.1879 14.5595
ltoes -4.0755
106
root -28.4905 17.0619 1.26145 40.7944 84.4447 41.2158
lowerback 3.64774 2.18835 -6.77448
upperback -0.19027 2.61487 -1.78866
thorax -2.46276 1.39195 1.78913
lowerneck -20.6261 3.0155 6.01383
upperneck 27.1255 3.35347 -2.47463
head 12.5974 1.91294 -1.37065
rclavicle -2.57675e-014 1.90833e-014
rhumerus -35.1802 4.11794 -90.3033
rradius 30.5964
rwrist 3.49275
rhand -7.71879 -33.1914
rfingers 7.12502
rthumb 18.1794 -62.3618
lclavicle -2.57675e-014 1.90833e-014
lhumerus -33.2184 -8.53641 89.688
lradius 23.626
lwrist -13.843
lhand -15.1121 -24.8975
lfingers 7.12502
lthumb 11.0567 4.79131
rfemur 8.60407 -3.37646 8.97235
rtibia 2.75512
rfoot -15.6421 -2.42469
rtoes 3.66221
lfemur 12.6296 1.64676 -20.9537
ltibia -2.83203
lfoot -13.3944 14.6765
ltoes -3.12237
107
root -28.4926 17.0621 1.26662 40.5122 84.4784 40.9442
lowerback 3.68224 2.18739 -6.77186
upperback -0.21472 2.60929 -1.75841
thorax -2.5084 1.39073 1.81719
lowerneck -20.5912 2.97888 5.97056
upperneck 27.1269 3.31415 -2.45827
head 12.5875 1.894 -1.36409
rclavicle 2.52705e-014 1.82882e-014
rhumerus -35.1268 4.30229 -90.3113
rradius 30.5375
rwrist 3.50832
rhand -7.78916 -33.046
rfingers 7.12502
rthumb 18.1117 -62.2228
lclavicle 2.52705e-014 1.82882e-014
lhumerus -33.194 -8.7836 89.7252
lradius 23.5932
lwrist -13.6145
lhand -14.1156 -24.6248
lfingers 7.12502
lthumb 12.0176 5.01013
rfemur 8.62922 -3.11203 9.14323
rtibia 2.69815
rfoot -15.6908 -2.69348
rtoes 3.51964
lfemur 12.6562 1.53378 -20.9168
ltibia -2.86663
lfoot -13.4389 14.7472
ltoes -3.12379
108
root -28.4935 17.061 1.27196 40.1442 84.4688 40.6118
lowerback 3.71028 2.17934 -6.81366
upperback -0.209345 2.59479 -1.70253
thorax -2.52197 1.38426 1.89798
lowerneck -20.4764 2.97014 5.79748
upperneck 26.996 3.32365 -2.32862
head 12.5058 1.89629 -1.2846
rclavicle -2.67862e-014 1.07344e-014
rhumerus -35.0596 4.49622 -90.2299
rradius 30.4261
rwrist 3.65627
rhand -7.85549 -32.444
rfingers 7.12502
rthumb 18.0479 -61.6266
lclavicle -2.67862e-014 1.07344e-014
lhumerus -33.0816 -8.67066 89.6592
lradius 23.5977
lwrist -13.5513
lhand -13.8233 -24.399
lfingers 7.12502
lthumb 12.2994 5.21932
rfemur 8.67874 -2.71651 9.32408
rtibia 2.63698
rfoot -15.7562 -3.1094
rtoes 3.4217
lfemur 12.6275 1.80894 -20.7609
ltibia -2.72499
lfoot -13.3349 14.4833
ltoes -3.72973
109
root -28.4929 17.0597 1.27701 39.011 84.5079 39.4802
lowerback 3.67427 2.1857 -6.72837
upperback -0.176024 2.6118 -1.66244
thorax -2.46657 1.3893 1.89329
lowerneck -20.5354 2.96375 5.72879
upperneck 26.9623 3.30192 -2.23734
head 12.5001 1.8898 -1.24135
rclavicle 2.00027e-014 3.97569e-016
rhumerus -34.8735 4.5418 -90.1617
rradius 30.2367
rwrist 3.95448
rhand -7.74933 -31.8201
rfingers 7.12502
rthumb 18.15 -60.9933
lclavicle 2.00027e-014 3.97569e-016
lhumerus -32.9608 -8.77713 89.5984
lradius 23.6914
lwrist -13.4202
lhand -13.5111 -24.294
lfingers 7.12502
lthumb 12.6005 5.30603
rfemur 8.66803 -2.52377 9.54475
rtibia 2.68624
rfoot -15.82 -3.33134
rtoes 3.69365
lfemur 12.6139 2.01895 -20.5096
ltibia -2.63967
lfoot -13.3119 14.257
ltoes -3.52958
110
root -28.4912 17.0594 1.28253 36.3482 84.5288 36.8414
lowerback 3.65092 2.24663 -6.5097
upperback -0.140144 2.70567 -1.63258
thorax -2.41518 1.4309 1.79859
lowerneck -20.6208 2.93571 5.77952
upperneck 26.9676 3.2288 -2.21518
head 12.5168 1.86432 -1.2531
rclavicle -3.36692e-015 2.0276e-014
rhumerus -34.7078 4.63115 -90.1919
rradius 30.1592
rwrist 4.05768
rhand -7.54922 -31.7776
rfingers 7.12502
rthumb 18.3425 -60.9328
lclavicle -3.36692e-015 2.0276e-014
lhumerus -32.9034 -9.10678 89.5578
lradius 23.8186
lwrist -13.3835
lhand -13.349 -24.3723
lfingers 7.12502
lthumb 12.7567 5.21801
rfemur 8.60849 -2.62703 9.79902
rtibia 2.84325
rfoot -15.8393 -3.17681
rtoes 3.70586
lfemur 12.7232 2.15176 -20.1803
ltibia -2.69812
lfoot -13.4335 14.1401
ltoes -2.34528
